<?xml version="1.0" encoding="utf-8"?>
<!-- Generator: Adobe Illustrator 27.5.0, SVG Export Plug-In . SVG Version: 6.00 Build 0)  -->
<svg version="1.1" xmlns="http://www.w3.org/2000/svg" xmlns:xlink="http://www.w3.org/1999/xlink" x="0px" y="0px"
	 viewBox="0 0 500 500" style="enable-background:new 0 0 500 500;" xml:space="preserve">
<g id="Background_Simple">
	<g>
		<path style="fill:#92E3A9;" d="M488.842,255.173c11.472-42.326,9.571-92.64-14.637-130.591
			c-41.029-64.322-95.763-81.136-162.509-70.061c-66.746,11.076-75.633,54.066-109.5,67.326
			c-33.867,13.26-98.238,5.483-144.515,34.596c-46.277,29.113-67.483,116.203-4.67,209.975s170.942,120.928,276.002,75.096
			C403.487,409.022,467.776,332.894,488.842,255.173z"/>
		<path style="opacity:0.7;fill:#FFFFFF;" d="M488.842,255.173c11.472-42.326,9.571-92.64-14.637-130.591
			c-41.029-64.322-95.763-81.136-162.509-70.061c-66.746,11.076-75.633,54.066-109.5,67.326
			c-33.867,13.26-98.238,5.483-144.515,34.596c-46.277,29.113-67.483,116.203-4.67,209.975s170.942,120.928,276.002,75.096
			C403.487,409.022,467.776,332.894,488.842,255.173z"/>
	</g>
</g>
<g id="Bricks">
	<g>
		<rect x="408" y="192.29" style="opacity:0.2;" width="42" height="17"/>
		<rect x="392" y="131.79" style="opacity:0.2;" width="42" height="17"/>
		<rect x="240" y="191.79" style="opacity:0.2;" width="42" height="17"/>
		<rect x="301" y="73.5" style="opacity:0.2;" width="42" height="17"/>
		<rect x="347" y="73.5" style="opacity:0.2;" width="42" height="17"/>
		<rect x="168" y="317.5" style="opacity:0.2;" width="42" height="17"/>
		<rect x="146" y="338.5" style="opacity:0.2;" width="42" height="17"/>
		<rect x="369" y="155.29" style="opacity:0.1;" width="42" height="17"/>
		<rect x="432" y="250.79" style="opacity:0.1;" width="42" height="17"/>
		<rect x="186" y="276.789" style="opacity:0.1;" width="42" height="17"/>
		<rect x="234" y="276.789" style="opacity:0.1;" width="42" height="17"/>
		<rect x="238" y="252.79" style="opacity:0.1;" width="42" height="17"/>
		<rect x="417" y="155.29" style="opacity:0.1;" width="42" height="17"/>
		<rect x="258" y="170.5" style="opacity:0.1;" width="42" height="17"/>
		<rect x="195" y="337.5" style="opacity:0.1;" width="42" height="17"/>
		<rect x="325" y="52.5" style="opacity:0.1;" width="42" height="17"/>
		<rect x="48" y="195.5" style="opacity:0.2;" width="42" height="17"/>
		<rect x="72" y="174.5" style="opacity:0.1;" width="42" height="17"/>
		<rect x="179" y="72.289" style="opacity:0.1;" width="42" height="17"/>
		<rect x="325" y="192.29" style="opacity:0.2;" width="42" height="17"/>
	</g>
</g>
<g id="Furniture">
	<g>
		
			<line style="fill:none;stroke:#263238;stroke-linecap:round;stroke-linejoin:round;stroke-miterlimit:10;" x1="299.562" y1="449.885" x2="27.899" y2="449.885"/>
		
			<line style="fill:none;stroke:#263238;stroke-linecap:round;stroke-linejoin:round;stroke-miterlimit:10;" x1="487" y1="449.885" x2="470.216" y2="449.885"/>
		<g>
			
				<rect x="299.65" y="289.483" style="fill:none;stroke:#263238;stroke-linecap:round;stroke-linejoin:round;stroke-miterlimit:10;" width="168.883" height="167.263"/>
			<g>
				
					<rect x="312.171" y="316.116" style="fill:none;stroke:#263238;stroke-linecap:round;stroke-linejoin:round;stroke-miterlimit:10;" width="143.842" height="52.957"/>
				
					<rect x="357.363" y="338.074" style="fill:none;stroke:#263238;stroke-linecap:round;stroke-linejoin:round;stroke-miterlimit:10;" width="53.457" height="9.041"/>
			</g>
			<g>
				
					<rect x="312.171" y="383.282" style="fill:none;stroke:#263238;stroke-linecap:round;stroke-linejoin:round;stroke-miterlimit:10;" width="143.842" height="52.957"/>
				
					<rect x="357.363" y="405.24" style="fill:none;stroke:#263238;stroke-linecap:round;stroke-linejoin:round;stroke-miterlimit:10;" width="53.457" height="9.042"/>
			</g>
			
				<rect x="296.15" y="279.079" style="fill:none;stroke:#263238;stroke-linecap:round;stroke-linejoin:round;stroke-miterlimit:10;" width="178.509" height="10.318"/>
		</g>
	</g>
	<g>
		<g>
			<polygon style="fill:none;stroke:#263238;stroke-linecap:round;stroke-linejoin:round;stroke-miterlimit:10;" points="
				424.43,230.181 385.938,230.181 370.761,279.052 409.252,279.052 			"/>
			<polygon style="fill:none;stroke:#263238;stroke-linecap:round;stroke-linejoin:round;stroke-miterlimit:10;" points="
				417.305,236.669 389.033,236.669 377.885,272.565 406.158,272.565 			"/>
		</g>
		<polyline style="fill:none;stroke:#263238;stroke-linecap:round;stroke-linejoin:round;stroke-miterlimit:10;" points="
			417.706,252.671 427.653,278.953 414.679,278.953 411.651,272.133 		"/>
	</g>
</g>
<g id="Plants">
	<g>
		<g>
			<path style="fill:#92E3A9;" d="M49.139,321.059c-0.231-1.22-0.706-2.51-1.262-3.883c-0.571-1.357-1.192-2.826-1.947-4.16
				c-1.505-2.671-3.165-5.19-4.335-6.605c-0.258-0.333-0.783-0.065-0.677,0.343c0.221,0.884,0.512,2.052,0.843,3.379
				c0.299,1.334,0.587,2.846,0.887,4.352c0.638,2.982,1.066,6.171,1.614,8.437c0.346,1.401,0.672,2.722,0.969,3.927
				c0.314,1.195,0.638,2.242,0.969,3.112l-2.902-2.636c-0.966-0.88-2.035-1.641-3.047-2.467c0.427-0.696,0.632-2.25,0.434-4.268
				c-0.234-1.972-0.779-4.548-1.879-7.173c-0.48-1.123-1.142-2.377-1.922-3.677c-0.792-1.281-1.759-2.536-2.73-3.783
				c-1.984-2.431-4.186-4.594-5.647-5.808c-0.329-0.284-0.804,0.074-0.614,0.459c0.412,0.847,0.957,1.942,1.526,3.2
				c0.532,1.264,1.127,2.681,1.738,4.133c1.098,2.855,2.247,5.843,3.111,8.089c0.557,1.362,1.104,2.606,1.631,3.702
				c0.492,1.149,0.965,2.151,1.419,2.971l-2.375-1.619l-2.475-1.465c-0.071-0.388-0.316-0.852-0.713-1.37
				c-0.414-0.489-0.989-1.016-1.694-1.568c-1.392-1.132-3.395-2.208-5.703-3.053c-2.057-0.728-4.875-1.189-7.538-1.21
				c-2.662-0.045-5.132,0.289-6.573,0.643c-0.333,0.086-0.299,0.678-0.012,0.762c1.365,0.393,3.576,1.212,5.829,2.174
				c2.269,0.936,4.571,2.083,6.434,2.733c3.866,1.409,7.37,2.32,9.025,2.038l2.455,1.453c0.806,0.503,1.575,1.067,2.365,1.597
				c-0.91-0.105-1.947-0.163-3.078-0.122c-1.156,0.083-2.391,0.245-3.649,0.498c-1.044,0.189-2.259,0.599-3.483,1.101
				c-1.229,0.516-2.444,1.044-3.618,1.748c-1.165,0.674-2.241,1.374-3.16,2.02c-0.925,0.674-1.696,1.323-2.263,1.806
				c-0.257,0.223-0.257,0.752-0.002,0.68c1.123-0.345,3.039-0.769,5.25-1.194c1.133-0.199,2.303-0.405,3.428-0.602
				c1.14-0.164,2.273-0.355,3.298-0.588c2.327-0.513,4.55-0.957,6.42-1.525c1.845-0.526,3.236-1.027,3.861-1.624
				c0.973,0.792,1.994,1.525,2.928,2.364l2.788,2.533c-0.892-0.236-1.929-0.435-3.059-0.572c-1.124-0.146-2.353-0.219-3.679-0.136
				c-2.2,0.102-4.988,0.631-7.568,1.548c-1.281,0.436-2.475,0.888-3.527,1.357c-1.063,0.495-1.962,0.96-2.631,1.322
				c-0.304,0.166-0.394,0.69-0.117,0.674c1.235-0.12,3.241-0.094,5.568-0.121c1.163-0.015,2.338,0.078,3.538,0.077
				c1.215-0.007,2.379-0.014,3.412-0.021c2.359-0.042,4.744-0.26,6.63-0.462c1.881-0.202,3.366-0.532,4.064-1.02
				c1.792,1.766,3.378,3.72,4.987,5.653c-1.723-0.687-3.951-1.405-6.587-1.659c-2.227-0.193-5.059-0.132-7.773,0.343
				c-2.718,0.467-5.126,1.085-6.595,1.573c-0.337,0.115-0.501,0.617-0.213,0.644c1.279,0.205,3.384,0.542,5.638,0.902
				c2.249,0.492,4.903,0.867,6.965,1.171c2.381,0.297,4.739,0.456,6.692,0.461c1.904,0.056,3.415-0.085,4.167-0.485l2.246,3.039
				l2.089,3.148c-1.613-0.888-3.78-1.813-6.402-2.387c-2.181-0.479-5.038-0.833-7.832-0.717c-2.767,0.063-5.289,0.329-6.814,0.553
				c-0.359,0.067-0.575,0.529-0.302,0.626c1.212,0.409,3.255,1.077,5.587,1.771c2.263,0.827,4.804,1.683,6.932,2.164
				c2.35,0.59,4.672,1.021,6.61,1.236c1.945,0.209,3.413,0.249,4.215-0.081l1.912,3.258l1.755,3.344
				c-1.511-1.053-3.579-2.192-6.117-3.03c-2.087-0.729-4.936-1.275-7.729-1.516c-2.768-0.265-5.301-0.33-6.931-0.274
				c-0.364,0.009-0.639,0.472-0.355,0.595c1.264,0.534,3.194,1.516,5.47,2.499c2.22,1.005,4.586,2.128,6.668,2.809
				c2.271,0.819,4.536,1.486,6.443,1.901c1.859,0.436,3.363,0.613,4.183,0.378c1.091,2.27,2.009,4.614,2.926,6.956
				c-1.394-1.212-3.352-2.564-5.738-3.685c-2.033-0.932-4.76-1.793-7.514-2.312c-2.721-0.544-5.234-0.853-6.851-0.957
				c-0.361-0.027-0.685,0.403-0.417,0.553c1.197,0.648,3.004,1.804,5.161,3.002c2.017,1.244,4.389,2.548,6.266,3.485
				c4.438,2.055,8.599,3.719,10.327,3.442l1.093,3.609l0.932,3.652c-1.222-1.381-2.988-2.961-5.237-4.347
				c-1.819-1.183-4.588-2.3-7.15-3.145c-2.644-0.833-5.167-1.384-6.681-1.677c-0.351-0.065-0.723,0.324-0.489,0.503
				c1.006,0.79,2.867,2.061,4.731,3.506c1.95,1.421,3.983,3,5.816,4.123c4.092,2.541,8.06,4.714,9.755,4.69
				c0.454,2.457,0.781,4.956,0.886,7.421c0.015,0.312,0.343,0.542,0.75,0.551c0.406,0.008,0.735-0.275,0.719-0.601
				c-0.11-2.582-0.444-5.112-0.907-7.624c1.592-0.447,4.611-4.09,6.652-9.34c0.849-2.232,1.547-5.316,1.883-8.262
				c0.42-2.983,0.41-5.774,0.461-7.537c0.007-0.401-0.567-0.474-0.732-0.101c-0.734,1.611-1.936,4.249-3.2,7.024
				c-1.323,2.766-2.618,5.554-3.502,7.744c-1.015,2.686-1.867,5.092-2.289,6.907c-0.295-1.272-0.637-2.533-0.959-3.798l-1.135-3.747
				c0.754-0.338,1.736-1.487,2.729-3.245c1.019-1.767,1.963-4.116,2.662-6.81c0.658-2.344,0.855-5.382,0.949-8.373
				c-0.028-2.911-0.162-5.779-0.387-7.458c-0.047-0.387-0.626-0.392-0.746-0.009c-0.498,1.663-1.464,4.457-2.414,7.295
				c-0.909,2.827-2.023,5.818-2.565,8.049c-0.71,2.786-1.241,5.267-1.427,7.121c-0.939-2.433-1.896-4.862-3.024-7.215
				c0.71-0.425,1.569-1.691,2.376-3.559c0.755-1.839,1.44-4.278,1.879-7.044c0.3-2.327,0.304-5.442,0.026-8.362
				c-0.32-2.879-0.738-5.698-1.125-7.335c-0.085-0.376-0.66-0.32-0.742,0.072c-0.327,1.693-1.015,4.564-1.667,7.478
				c-0.619,2.902-1.37,5.96-1.703,8.257c-0.358,2.816-0.656,5.364-0.625,7.226l-1.813-3.465l-1.979-3.373
				c0.648-0.492,1.409-1.873,1.967-3.783c0.56-1.91,0.99-4.403,1.148-7.191c0.079-2.352-0.275-5.386-0.784-8.297
				c-0.654-2.876-1.473-5.631-2.01-7.314c-0.118-0.387-0.712-0.264-0.732,0.139c-0.181,1.773-0.477,4.677-0.789,7.731
				c-0.254,2.973-0.796,6.101-0.852,8.398c-0.064,2.826-0.105,5.398,0.121,7.246l-2.158-3.26l-2.323-3.144
				c0.606-0.564,1.183-1.982,1.597-3.974c0.358-1.959,0.494-4.485,0.318-7.298c-0.107-2.445-0.991-5.405-1.907-8.322
				c-1.019-2.836-2.293-5.475-3.087-7.101c-0.2-0.358-0.76-0.169-0.724,0.241c0.148,1.808,0.253,4.817,0.377,7.832
				c0.133,3.02,0.041,6.242,0.28,8.526c0.267,2.853,0.477,5.433,0.923,7.226c-1.672-2.004-3.312-4.036-5.175-5.873
				c0.532-0.634,0.928-2.109,1.07-4.151C49.975,326.35,49.715,323.858,49.139,321.059z"/>
		</g>
		<g>
			<path style="fill:#92E3A9;" d="M105.063,259.445c2.171-2.67,5.069-6.321,7.64-9.799c2.629-3.428,5.126-6.684,6.65-8.671
				c0.36-0.443,0.077-1.041-0.365-0.77c-1.921,1.196-4.952,3.292-8.232,5.765c-3.223,2.483-6.443,5.438-8.878,8.076
				c-2.82,3.309-5.231,6.699-6.88,9.52l1.995-7.06l1.017-3.524l1.17-3.477c1.681,0.206,6.747-3.989,12.594-9.586
				c5.028-4.884,12.493-13.558,16.025-17.073c0.387-0.413,0.15-1.04-0.305-0.806c-1.981,1.034-5.344,2.766-8.728,4.984
				c-1.7,1.101-3.507,2.271-5.13,3.51c-1.619,1.241-3.153,2.507-4.458,3.718c-1.642,1.485-3.088,3.034-4.377,4.538
				c-1.299,1.5-2.455,2.949-3.415,4.272c1.323-3.329,2.496-6.72,3.942-9.999c0.926-0.645,2.311-2.583,3.885-5.366
				c1.709-2.721,3.49-6.347,5.522-10.248c0.87-1.745,1.778-3.787,2.772-5.903c0.475-1.072,0.96-2.167,1.447-3.267
				c0.499-1.094,1-2.192,1.493-3.273c1.955-4.338,3.851-8.406,5.107-10.834c0.285-0.553-0.193-0.901-0.629-0.431
				c-1.892,2.035-4.807,5.524-7.66,9.461c-0.704,0.991-1.419,1.998-2.131,3c-0.667,1.033-1.332,2.062-1.982,3.068
				c-1.305,2.015-2.409,4.019-3.303,5.804c-1.928,3.7-3.264,7.327-4.296,10.269c-0.939,2.987-1.404,5.369-1.393,6.713l-1.083,2.521
				l-0.986,2.561l-1.972,5.121c0.16-1.597,0.269-3.412,0.322-5.382c0.024-1.975,0.05-4.089,0.077-6.275
				c0.005-1.831-0.092-3.9-0.244-6.064c-0.141-2.158-0.287-4.393-0.428-6.55c-0.372-4.36-0.597-8.4-0.794-10.897
				c-0.042-0.568-0.717-0.344-0.87,0.29c-0.32,1.383-0.743,3.209-1.224,5.286c-0.403,2.096-0.829,4.436-1.222,6.823
				c-0.429,2.371-0.643,4.872-0.873,7.184c-0.204,2.325-0.363,4.489-0.285,6.377c0.122,8.526,1.783,14.982,3.21,15.981l-1.153,3.428
				c-0.36,1.15-0.67,2.316-1.007,3.473l-1.982,6.957c0.034-3.201-0.238-7.262-0.735-11.653c-0.274-3.624-1.127-8.211-1.831-12.506
				c-0.72-4.328-1.389-8.344-1.794-10.78c-0.085-0.557-0.746-0.276-0.853,0.363c-0.357,2.848-1.006,7.452-1.292,12.307
				c-0.239,4.879-0.372,9.899,0.142,13.65c0.49,4.247,1.184,7.914,2.153,10.67c0.906,2.739,1.833,4.503,2.597,4.932l-0.814,3.525
				l-0.621,3.564l-1.235,7.131c-0.306-3.186-0.996-7.196-1.974-11.528c-0.648-3.584-1.877-8.05-3.088-12.295
				c-1.051-4.188-2.125-8.155-2.787-10.581c-0.151-0.553-0.768-0.203-0.796,0.452c-0.343,5.745-0.406,18.704,1.407,26.044
				c1.728,8.369,4.841,14.362,6.411,15.027c-0.672,4.784-0.746,9.618-0.993,14.437c-0.353-1.565-0.823-3.324-1.395-5.218
				c-0.286-0.947-0.598-1.927-0.933-2.934c-0.354-1.009-0.687-2.04-0.981-3.083c-1.041-3.493-2.824-7.82-4.442-11.92
				c-1.488-4.066-2.974-7.921-3.885-10.281c-0.208-0.538-0.785-0.122-0.744,0.537c0.104,1.435,0.242,3.329,0.399,5.484
				c0.186,2.142,0.342,4.509,0.793,6.957c0.395,2.437,0.838,4.905,1.315,7.203c0.246,1.15,0.469,2.255,0.756,3.3
				c0.316,1.049,0.635,2.032,0.953,2.925c1.46,4.071,2.979,7.521,4.405,9.972c1.488,2.431,2.78,3.953,3.621,4.21
				c-0.044,4.812,0.024,9.623,0.103,14.433c-0.924-3.084-2.288-6.887-4.04-10.87c-0.712-1.668-1.611-3.503-2.599-5.387
				c-0.506-0.938-1.021-1.892-1.536-2.847c-0.497-0.985-0.994-1.97-1.482-2.938c-2.059-3.945-3.97-7.605-5.129-9.826
				c-0.273-0.515-0.794-0.032-0.671,0.624c0.542,2.869,1.452,7.556,2.599,12.284c1.313,4.526,2.794,9.205,4.291,12.552
				c3.339,7.641,7.05,13.099,8.739,13.551c0.149,4.809,0.35,9.615,0.591,14.42c-0.983-3.054-2.548-6.805-4.385-10.727
				c-3.155-6.538-9.144-15.773-11.776-19.845c-0.302-0.462-0.794,0.032-0.634,0.636c1.349,5.315,4.843,17.248,8.021,23.82
				c3.607,7.516,7.486,12.852,9.186,13.249c0.315,4.801,0.653,9.6,1.068,14.393c-1.111-3.018-2.762-6.72-4.74-10.578
				c-3.354-6.435-9.67-15.457-12.42-19.429c-0.313-0.451-0.793,0.059-0.618,0.656c1.545,5.252,5.399,17.056,8.804,23.524
				c3.838,7.398,7.901,12.607,9.619,12.944c0.467,4.778,0.978,9.55,1.593,14.319c0.077,0.602,0.471,1.047,0.873,0.989
				c0.402-0.058,0.662-0.582,0.585-1.18c-0.611-4.737-1.121-9.496-1.586-14.255c1.612-0.488,4.607-6.399,7.382-14.201
				c2.352-6.742,4.945-18.385,6.117-23.455c0.134-0.579-0.379-1.027-0.661-0.576c-2.474,3.935-7.916,13.243-10.313,20.025
				c-1.504,4.176-2.579,8.202-3.143,11.411c-0.427-4.883-0.77-9.773-1.092-14.664c1.634-0.432,4.831-6.245,7.846-13.956
				c2.584-6.665,5.53-18.206,6.889-23.222c0.149-0.574-0.353-1.037-0.646-0.597c-2.588,3.84-8.36,12.955-10.964,19.657
				c-1.656,4.125-2.822,8.113-3.519,11.304c-0.251-4.895-0.455-9.793-0.608-14.692c1.643-0.378,5.023-6.087,8.308-13.683
				c1.383-3.278,2.949-7.781,4.299-12.072c1.513-4.081,2.843-7.836,3.614-10.126c0.177-0.52-0.3-0.993-0.614-0.607
				c-1.378,1.693-3.631,4.566-5.947,7.909c-0.578,0.836-1.164,1.696-1.733,2.576c-0.535,0.91-1.06,1.829-1.563,2.74
				c-1.005,1.823-1.921,3.62-2.649,5.264c-1.743,4.065-3.123,8.011-3.879,11.177c-0.086-4.9-0.154-9.802-0.11-14.703
				c0.824-0.16,2.137-1.637,3.666-4.008c1.581-2.352,3.497-5.492,5.319-9.029c0.395-0.761,0.797-1.593,1.202-2.472
				c0.446-0.878,0.916-1.802,1.399-2.753c0.946-1.901,1.889-3.906,2.773-5.85c0.828-1.949,1.849-3.818,2.672-5.483
				c0.817-1.658,1.535-3.115,2.079-4.219c0.243-0.501-0.171-1.028-0.533-0.677c-1.587,1.537-4.192,4.152-6.915,7.213
				c-2.588,3.064-5.127,6.605-6.941,9.691c-0.578,0.951-1.062,1.906-1.482,2.853c-0.437,0.946-0.846,1.881-1.226,2.794
				c-0.759,1.826-1.397,3.565-1.89,5.123c0.257-4.88,0.314-9.775,0.998-14.623c1.725-0.151,5.662-5.329,10.353-11.914
				c3.777-5.78,9.689-15.557,12.36-19.688c0.296-0.477-0.059-1.047-0.457-0.733c-1.747,1.377-4.622,3.724-7.658,6.491
				c-2.866,2.794-5.853,6.031-7.998,8.901c-2.436,3.578-4.462,7.204-5.834,10.18l1.252-7.227l0.625-3.613l0.824-3.574
				c0.84,0.02,2.449-1.14,4.454-3.076C99.861,265.173,102.442,262.51,105.063,259.445z"/>
		</g>
		<g>
			<path style="fill:#92E3A9;" d="M143.46,315.332c4.601-1.97,11.235-5.931,14.089-7.54c0.329-0.181,0.096-0.697-0.301-0.664
				c-1.735,0.157-4.578,0.512-7.621,1.075c-2.992,0.607-6.223,1.393-8.535,2.378c-2.895,1.182-5.398,2.573-7.15,3.861
				c1.61-2.683,3.31-5.309,5.014-7.931c1.51,0.753,6.426-0.3,11.882-2.131c2.347-0.792,5.208-2.111,7.857-3.281
				c2.633-1.219,5.056-2.249,6.488-2.886c0.329-0.132,0.132-0.654-0.255-0.671c-1.695-0.072-4.512-0.023-7.545,0.271
				c-3.022,0.31-6.248,0.883-8.626,1.693c-2.964,0.969-5.514,2.235-7.365,3.396c1.319-1.871,2.621-3.756,3.998-5.584
				c1.699-0.263,5.117-3.568,8.7-7.816c0.79-0.948,1.659-2.053,2.51-3.278c0.871-1.2,1.784-2.457,2.672-3.68
				c1.755-2.478,3.585-4.666,4.779-5.999c0.267-0.307-0.064-0.798-0.438-0.624c-1.646,0.731-4.345,2.124-6.901,4.01
				c-1.307,0.917-2.553,1.964-3.741,2.984c-1.133,1.058-2.21,2.092-3.031,3.085c-3.484,4.125-5.478,8.285-5.547,10.196
				c-1.422,1.86-2.737,3.796-4.096,5.7c0.457-2.101,0.733-4.907,0.923-8.002c0.126-2.606,0.005-6.014-0.11-9.301
				c-0.099-3.277-0.207-6.437-0.209-8.385c0-0.444-0.608-0.513-0.784-0.087c-0.716,1.869-1.846,4.913-2.671,8.145
				c-0.877,3.226-1.495,6.639-1.625,9.28c-0.306,6.02,0.715,10.962,1.915,12.145c-1.678,2.585-3.358,5.168-4.942,7.81
				c0.295-2.146,0.449-4.935,0.412-8.031c-0.068-2.608-0.394-5.955-0.823-9.195c-0.411-3.242-0.798-6.302-1.034-8.166
				c-0.051-0.428-0.652-0.455-0.774-0.034c-1.047,3.719-2.92,12.125-2.769,17.366c0.115,5.996,1.336,10.849,2.637,11.985
				c-1.569,2.651-3.073,5.338-4.553,8.039c0.232-2.136,0.187-4.96,0.012-8.029c-0.378-5.142-2.208-13.422-2.898-17.116
				c-0.084-0.419-0.679-0.413-0.766,0.009c-0.819,3.697-2.111,12.14-1.725,17.342c0.419,5.957,1.876,10.756,3.221,11.828
				c-1.46,2.712-2.815,5.477-4.197,8.227c0.135-2.145-0.004-4.951-0.345-8.017c-0.603-5.113-2.826-13.267-3.747-16.902
				c-0.105-0.411-0.699-0.378-0.765,0.043c-0.268,1.855-0.653,4.9-0.889,8.114c-0.186,3.238-0.294,6.611,0.04,9.218
				c0.672,5.909,2.347,10.669,3.732,11.671c-1.348,2.77-2.554,5.607-3.807,8.421c0.022-2.15-0.234-4.942-0.728-8.004
				c-0.38-2.541-1.273-5.841-2.146-8.936c-0.867-3.083-1.777-6.002-2.343-7.784c-0.129-0.406-0.715-0.347-0.755,0.078
				c-0.374,3.701-0.975,12.191-0.09,17.386c0.925,5.905,2.892,10.575,4.309,11.49c-1.144,2.862-2.269,5.732-3.285,8.644
				c-0.15-2.163-0.547-4.927-1.207-7.962c-0.571-2.547-1.563-5.757-2.63-8.845c-1.01-3.051-2.044-5.947-2.685-7.718
				c-0.146-0.404-0.731-0.313-0.753,0.119c-0.232,3.778-0.422,12.349,0.771,17.507c1.281,5.886,3.512,10.405,5.02,11.234
				c-0.982,2.924-1.846,5.888-2.659,8.867c-0.308-2.143-0.921-4.878-1.789-7.876c-1.455-4.962-4.897-12.803-6.298-16.294
				c-0.166-0.397-0.748-0.269-0.75,0.165c-0.075,3.795,0.292,12.491,1.838,17.595c1.702,5.849,4.307,10.178,5.89,10.863
				c-0.697,3.006-1.29,6.031-1.659,9.13c-0.044,0.392,0.254,0.752,0.661,0.778c0.405,0.025,0.758-0.24,0.8-0.617
				c0.356-2.991,0.941-5.989,1.629-8.951c1.641,0.153,5.926-2.469,10.435-5.944c3.861-3.047,9.184-8.526,11.589-10.852
				c0.269-0.268-0.093-0.712-0.466-0.57c-3.306,1.196-10.696,4.403-14.704,7.518c-2.455,1.895-4.479,3.909-5.809,5.632
				c0.822-3.011,1.691-6.012,2.687-8.975c1.622,0.307,6.118-1.952,10.907-5.151c4.082-2.808,9.836-8.023,12.337-10.255
				c0.283-0.257-0.054-0.725-0.434-0.602c-1.665,0.54-4.405,1.478-7.284,2.656c-2.811,1.193-5.82,2.615-7.897,4.026
				c-2.591,1.732-4.772,3.59-6.222,5.208c1.03-2.951,2.166-5.865,3.328-8.768c1.631,0.429,6.227-1.548,11.233-4.486
				c4.257-2.577,10.297-7.549,12.93-9.726c0.297-0.249-0.015-0.736-0.402-0.627c-1.699,0.479-4.489,1.312-7.427,2.362
				c-2.924,1.048-5.925,2.338-8.134,3.616c-2.678,1.593-4.956,3.325-6.533,4.838c1.265-2.86,2.492-5.738,3.86-8.553
				c1.585,0.508,6.308-1.191,11.457-3.932c2.183-1.204,4.896-2.98,7.313-4.741c2.465-1.732,4.703-3.411,6.055-4.432
				c0.312-0.229,0.026-0.725-0.369-0.638c-3.442,0.749-11.321,2.872-15.809,5.286c-2.77,1.468-5.107,3.102-6.771,4.526
				c1.407-2.796,2.781-5.609,4.266-8.365c1.549,0.579,6.372-0.922,11.612-3.427c4.529-2.185,10.925-6.635,13.75-8.447
				c0.32-0.212,0.055-0.72-0.34-0.655c-3.478,0.526-11.428,2.256-16.01,4.466c-2.858,1.322-5.233,2.871-6.961,4.218
				c1.506-2.744,3.03-5.477,4.624-8.169C133.219,318.825,138.121,317.555,143.46,315.332z"/>
		</g>
		<path style="fill:#263238;" d="M82.823,456.451h15.555c12.303-5.4,21.34-23.278,21.34-44.516c0-8.942-1.606-17.285-4.379-24.358
			H65.862c-2.773,7.073-4.378,15.416-4.378,24.358C61.483,433.173,70.52,451.051,82.823,456.451z"/>
	</g>
	<g>
		<path style="fill:#92E3A9;" d="M317.338,235.89c0,0-3.014-3.836-6.302-5.48c-3.288-1.644-10.138-3.014-10.138-3.014
			s6.028-1.37,10.685-0.274c4.658,1.096,7.946,5.754,7.946,5.754s-1.37-1.918-3.288-7.672c-1.918-5.754-1.918-18.083-1.918-18.083
			s4.658,5.206,6.85,11.507c2.192,6.302,2.74,11.781,2.74,11.781s-0.548-9.59,1.096-15.069c1.644-5.48,6.302-12.329,6.302-12.329
			s0.274,12.055-1.644,18.631c-1.918,6.576-2.74,9.589-2.74,9.589s1.644-5.206,5.754-9.041c4.11-3.836,13.973-7.124,13.973-7.124
			s-4.658,8.493-7.672,11.233c-3.014,2.74-6.028,5.754-6.028,5.754s3.288-2.466,9.042-2.466c5.754,0,12.603,3.836,12.603,3.836
			s-20.001-0.274-23.837,3.014L317.338,235.89z"/>
		<g>
			
				<line style="fill:none;stroke:#263238;stroke-linecap:round;stroke-linejoin:round;stroke-miterlimit:10;" x1="321.059" y1="234.425" x2="317.683" y2="232.088"/>
			
				<line style="fill:none;stroke:#263238;stroke-linecap:round;stroke-linejoin:round;stroke-miterlimit:10;" x1="324.694" y1="236.243" x2="320.02" y2="223.778"/>
			
				<line style="fill:none;stroke:#263238;stroke-linecap:round;stroke-linejoin:round;stroke-miterlimit:10;" x1="324.175" y1="237.801" x2="327.291" y2="219.624"/>
			
				<line style="fill:none;stroke:#263238;stroke-linecap:round;stroke-linejoin:round;stroke-miterlimit:10;" x1="324.694" y1="236.243" x2="333.523" y2="225.336"/>
			
				<line style="fill:none;stroke:#263238;stroke-linecap:round;stroke-linejoin:round;stroke-miterlimit:10;" x1="322.963" y1="235.126" x2="335.86" y2="231.828"/>
		</g>
		<path style="fill:#263238;" d="M340.324,278.716h-27.388l-1.235-9.935c-0.901-7.251-0.945-14.583-0.129-21.843l1.364-12.136
			h27.388l1.35,11.876c0.825,7.252,0.792,14.576-0.097,21.82L340.324,278.716z"/>
		<polyline style="fill:#263238;stroke:#FFFFFF;stroke-linecap:round;stroke-linejoin:round;stroke-miterlimit:10;" points="
			342.142,260.058 338.032,235.126 332.553,278.142 322.963,235.126 317.209,278.69 312.937,234.801 		"/>
		<path style="fill:none;stroke:#263238;stroke-miterlimit:10;" d="M340.324,278.716h-27.388l-1.235-9.935
			c-0.901-7.251-0.945-14.583-0.129-21.843l1.364-12.136h27.388l1.35,11.876c0.825,7.252,0.792,14.576-0.097,21.82L340.324,278.716z
			"/>
	</g>
</g>
<g id="Spider">
	<g>
		<path style="fill:#263238;" d="M298.132,102.679l-2.552-8.566l1.721,8.419l-8.182,3.279c-0.059-0.564-0.211-1.189-0.44-1.811
			l3.382-6.456l0.022-0.042c0.078-0.15,0.057-0.325-0.039-0.451l-5.348-6.979l4.429,7.227l-3.312,4.979
			c-0.701-1.061-1.622-1.849-2.634-1.849c-1.036,0-1.977,0.826-2.684,1.926l-3.578-4.464l3.781-7.587l-4.721,7.419
			c-0.085,0.134-0.091,0.311,0.001,0.453l0.026,0.04l3.69,5.74c-0.218,0.58-0.365,1.164-0.435,1.701l-7.816-3.126l1.724-8.419
			l-2.558,8.566c-0.051,0.17,0.025,0.356,0.189,0.439l0.031,0.016l8.553,4.329c0.215,0.705,0.622,1.324,1.158,1.802l-6.679,3.431
			l-0.023,0.012c-0.124,0.064-0.182,0.208-0.143,0.338l1.939,6.593l-1.307-6.48l7.316-2.97c-0.118,0.2-0.197,0.423-0.231,0.663
			c-0.053,0.016-0.105,0.037-0.155,0.067c-0.02,0.012-0.039,0.026-0.057,0.04l-4.856,3.749l-0.029,0.022
			c-0.102,0.079-0.144,0.208-0.118,0.328l1.438,6.609l-0.724-6.483l4.843-2.986c0.333,0.447,0.862,0.741,1.462,0.741
			c0.665,0,1.242-0.359,1.562-0.891c0.013,0.009,0.023,0.02,0.037,0.028l5.029,3.107l-0.723,6.483l1.435-6.609
			c0.026-0.119-0.016-0.249-0.118-0.328l-0.029-0.022l-4.845-3.749c-0.018-0.014-0.038-0.028-0.057-0.04
			c-0.152-0.094-0.327-0.117-0.488-0.081c-0.048-0.318-0.176-0.606-0.366-0.849c0.018-0.007,0.038-0.013,0.056-0.02
			c0.059,0.057,0.128,0.104,0.208,0.137l7.504,3.053l-1.305,6.48l1.935-6.593c0.038-0.131-0.019-0.274-0.143-0.338l-0.024-0.012
			l-6.918-3.563c0.404-0.398,0.72-0.882,0.925-1.421l9.026-4.579l0.031-0.016C298.107,103.035,298.183,102.849,298.132,102.679z"/>
		<line style="fill:none;stroke:#263238;stroke-miterlimit:10;" x1="285.308" y1="101.199" x2="285.308" y2="8"/>
	</g>
</g>
<g id="Character">
	<g>
		<ellipse style="fill:#263238;stroke:#263238;stroke-miterlimit:10;" cx="238.5" cy="471.5" rx="92.5" ry="7.5"/>
		<g>
			<g>
				<path style="fill:#263238;stroke:#263238;stroke-miterlimit:10;" d="M225.684,97.812c0,0,6.405-1.963,6.977-8.651
					c0.572-6.688-3.988-15.544-20.777-19.602c-16.788-4.058-40.603,3.348-49.834,16.831c-16.012,23.388-3.25,44.548,5.237,50.677
					c8.487,6.128,14.593,5.829,14.247,8.33c-0.345,2.501-3.158,4.029-3.158,4.029s2.122,3.474,6.903,4.363
					c4.781,0.889,11.555-3.994,12.556-10.869c1.002-6.875-0.797-12.432-1.199-16.653c-0.402-4.221,19.783-24.126,20.92-25.745
					C218.696,98.904,225.684,97.812,225.684,97.812z"/>
				<polygon style="fill:#FFFFFF;stroke:#263238;stroke-miterlimit:10;" points="193.673,134.505 197.305,152.759 216.838,148.776 
					216.714,143.31 193.577,132.4 				"/>
				<g>
					<path style="fill:#FFFFFF;stroke:#263238;stroke-miterlimit:10;" d="M216.555,86.468c0,0-4.177,9.324-11.225,17.39
						c-7.048,8.066-16.48,12.698-16.48,12.698l-8.78,6.136c0,0,1.287,3.375,4.444,6.117c3.157,2.742,6.859,2.208,6.859,2.208
						s4.592,10.165,12.49,13.531c7.898,3.366,20.756,3.327,23.864,0.189c3.108-3.137,5.564-21.369,4.881-29.119
						c-0.683-7.75-3.741-12.323-6.007-17.955C224.335,92.031,216.555,86.468,216.555,86.468z"/>
					<line style="fill:none;stroke:#263238;stroke-miterlimit:10;" x1="249.163" y1="96.462" x2="242.654" y2="100.247"/>
					<line style="fill:none;stroke:#263238;stroke-miterlimit:10;" x1="245.929" y1="108.897" x2="249.879" y2="108.716"/>
					<line style="fill:none;stroke:#263238;stroke-miterlimit:10;" x1="245.339" y1="116.155" x2="251.583" y2="117.281"/>
					<path style="fill:none;stroke:#263238;stroke-miterlimit:10;" d="M222.563,104.423c0,0,0.128,4.415,1.534,5.592
						c1.405,1.178,4.701,1.356,4.889,4.672c0.188,3.316-2.801,4.256-4.979,3.771"/>
					<g>
						<path style="fill:#263238;stroke:#263238;stroke-miterlimit:10;" d="M215.994,133.846c-0.571-0.031-1.143-0.202-1.662-0.527
							c-1.639-1.024-2.138-3.184-1.114-4.823c1.575-2.521,4.97-4.576,8.449-5.116c3.206-0.495,6.268,0.334,8.622,2.338
							c1.472,1.253,1.65,3.462,0.397,4.934c-1.253,1.473-3.462,1.649-4.934,0.397c-0.814-0.694-1.8-0.94-3.014-0.751
							c-1.887,0.292-3.309,1.467-3.584,1.907C218.454,133.325,217.225,133.913,215.994,133.846z"/>
					</g>
					<path style="fill:#263238;" d="M211.28,110.246c0.182,0.889-0.062,1.689-0.543,1.787c-0.481,0.098-1.019-0.543-1.2-1.431
						c-0.181-0.889,0.062-1.689,0.543-1.787C210.562,108.716,211.099,109.357,211.28,110.246z"/>
					<path style="fill:#263238;" d="M226.732,108.082c0.182,0.889-0.062,1.689-0.543,1.787c-0.482,0.098-1.019-0.542-1.2-1.431
						c-0.181-0.889,0.062-1.689,0.543-1.787C226.013,106.553,226.55,107.194,226.732,108.082z"/>
					<path style="fill:none;stroke:#FFFFFF;stroke-miterlimit:10;" d="M209.341,99.134c-1.9,0.269-4.587,1.326-6.874,4.771"/>
					<path style="fill:none;stroke:#263238;stroke-miterlimit:10;" d="M211.786,99.183c0,0-0.992-0.255-2.444-0.049"/>
					<path style="fill:none;stroke:#263238;stroke-miterlimit:10;" d="M221.944,100.969c0,0,2.473-3.016,5.896-0.311"/>
					<path style="fill:none;stroke:#263238;stroke-miterlimit:10;" d="M200.396,111.142c0,0-0.215,3.978,4.566,4.866"/>
					<line style="fill:none;stroke:#263238;stroke-miterlimit:10;" x1="207.848" y1="117.004" x2="215.091" y2="115.086"/>
					<path style="fill:#263238;stroke:#263238;stroke-miterlimit:10;" d="M187.031,117.558c0,0,4.855,3.412,5.54,2.399
						c0.685-1.013,0.968-6.247,0.968-6.247L187.031,117.558z"/>
					<path style="fill:#FFFFFF;stroke:#263238;stroke-miterlimit:10;" d="M214.027,133.083c0.101,0.079,0.193,0.166,0.305,0.236
						c0.519,0.325,1.091,0.496,1.662,0.527c1.231,0.067,2.46-0.521,3.16-1.641c0.193-0.309,0.958-0.975,2.045-1.448
						C217.118,129.394,214.908,131.739,214.027,133.083z"/>
				</g>
			</g>
			<g>
				<path style="fill:#263238;stroke:#263238;stroke-miterlimit:10;" d="M269.525,273.467c0,0,7.141,63.114,4.13,82.485
					c-3.012,19.372-18.851,56.04-18.851,56.04l-21.872-3.999c0,0,9.648-45.439,9.814-54.699
					c0.165-9.261-13.643-47.683-11.003-74.085C234.381,252.808,267.302,266.56,269.525,273.467z"/>
				<g>
					<polygon style="fill:#FFFFFF;stroke:#263238;stroke-miterlimit:10;" points="250.365,415.639 240.831,444.762 226.605,442.254 
						233.71,411.409 					"/>
					<g>
						<path style="fill:#92E3A9;stroke:#263238;stroke-miterlimit:10;" d="M240.831,444.762c0,0,0.231,5.218,1.521,7.199
							c1.29,1.982,6.551,5.095,13.102,10.19c6.551,5.095,11.113,7.768,4.245,9.693c-6.868,1.924-22.824-1.866-30.506-2.99
							c-7.682-1.124-10.731-0.31-11.106-4.057c-0.375-3.747,8.517-22.543,8.517-22.543L240.831,444.762z"/>
						<path style="fill:#FFFFFF;stroke:#263238;stroke-miterlimit:10;" d="M229.193,468.854c-7.682-1.124-10.731-0.309-11.106-4.057
							c-0.05-0.498,0.067-1.266,0.302-2.215c8.467,2.349,20.702,5.368,29.209,6.202c7.052,0.691,12.332,0.168,15.207-0.292
							c0.812,1.393,0.097,2.454-3.107,3.352C252.831,473.768,236.876,469.978,229.193,468.854z"/>
					</g>
				</g>
				<path style="fill:#787878;stroke:#263238;stroke-miterlimit:10;" d="M257.214,410.66l-2.794,6.452
					c-0.368,0.85-1.283,1.326-2.19,1.138l-20.62-4.252c-1.023-0.211-1.7-1.189-1.537-2.221l1.326-8.407
					c0.182-1.157,1.334-1.895,2.462-1.579l22.088,6.206C257.089,408.32,257.685,409.573,257.214,410.66z"/>
			</g>
			<g>
				<g>
					<g>
						<path style="fill:#92E3A9;stroke:#263238;stroke-miterlimit:10;" d="M163.696,398.979c0,0-8.043,5.112-9.638,7.245
							c-1.595,2.133-0.449,15.139,2.102,22.674c2.551,7.535,11.471,13.565,15.179,13.396c3.708-0.169,4.625-3.448,3.06-8.711
							c-1.564-5.262-3.687-13.884-3.468-17.94c0.219-4.056,0.579-10.694,0.579-10.694L163.696,398.979z"/>
						<path style="fill:#FFFFFF;stroke:#263238;stroke-miterlimit:10;" d="M171.339,442.295c1.606-0.073,2.687-0.732,3.271-1.882
							c-9.749-1.112-13.657-7.083-16.585-14.359c-2.26-5.616-2.657-15.947-2.707-21.094c-0.548,0.477-0.997,0.913-1.259,1.265
							c-1.595,2.133-0.449,15.139,2.102,22.674C158.711,436.434,167.631,442.464,171.339,442.295z"/>
					</g>
					<path style="fill:#FFFFFF;stroke:#263238;stroke-miterlimit:10;" d="M176.743,383.412l-14.602,16.963
						c0,0-1.734,4.714,2.222,6.777c3.957,2.063,6.249,0.708,6.249,0.708l17.024-13.873L176.743,383.412z"/>
				</g>
				<path style="fill:#787878;stroke:#263238;stroke-miterlimit:10;" d="M184.229,374.941c0,0-2.521-1.246-4.425-0.239
					c-1.904,1.007-6.468,3.349-6.608,5.93c-0.14,2.581,1.425,7.844,7.086,12.588c5.661,4.744,7.873,4.864,9.408,3.837
					c1.535-1.027,8.841-6.179,9.678-7.983c0.837-1.804-1.216-4.874-2.631-6.06C195.321,381.828,184.229,374.941,184.229,374.941z"/>
				<g>
					<path style="fill:#263238;stroke:#263238;stroke-miterlimit:10;" d="M194.475,280.94c0,0,0.996,8.93,8.849,27.847
						c7.853,18.917,11.251,31.306,11.251,31.306s-32.988,35.815-33.845,37.987c-0.857,2.173,6.079,10.685,11.242,10.964
						c5.163,0.279,55.602-36.81,56.988-41.913c1.386-5.103-15.376-77.473-15.376-77.473S208.14,267.625,194.475,280.94z"/>
					<path style="fill:none;stroke:#666666;stroke-miterlimit:10;" d="M238.808,291.552c3.3,15.965,10.18,49.636,10.262,53.244
						c0.108,4.748-13.193,14.607-13.193,14.607"/>
					<path style="fill:none;stroke:#666666;stroke-miterlimit:10;" d="M237.08,283.229c0,0,0.273,1.308,0.738,3.543"/>
				</g>
			</g>
			<g>
				<path style="fill:#92E3A9;stroke:#263238;stroke-miterlimit:10;" d="M192.353,277.442l2.064,8.123
					c0,0,24.168-11.712,40.893-10.807c16.725,0.905,37.398,7.531,37.398,7.531l0.088-6.254c0,0-5.984-5.081-20.578-8.374
					c-14.593-3.293-34.382-3.112-43.875,1.132C198.85,273.036,192.353,277.442,192.353,277.442z"/>
				<g>
					<path style="fill:#92E3A9;stroke:#263238;stroke-miterlimit:10;" d="M221.364,153.015
						c-0.304,0.985-31.806,14.052-35.894,15.584c-4.089,1.531-9.081,1.261-14.607,6.22c-5.526,4.959-41.603,37.313-42.21,39.283
						c-0.607,1.97-2.456,8.874,3.731,10.211c6.187,1.336,45.3-22.836,45.3-22.836s6.22,5.344,8.514,9.223
						c2.294,3.88,8.499,28.062,8.499,28.062s-5.824,38.241-4.185,40.333c1.639,2.092,3.717,0.702,3.717,0.702
						s20.606-10.652,39.355-10.139s36.912,7.255,38.66,7.349c1.747,0.095,3.144-2.584,3.03-5.094
						c-0.115-2.51-0.677-22.117-11.272-36.913c-5.773-8.061-13.302-31.827-13.302-31.827s-5.605-30.598-10.031-41.352
						c-4.426-10.755-15.619-12.111-16.921-11.18C222.444,151.571,221.364,153.015,221.364,153.015z"/>
					<polygon style="fill:#263238;stroke:#263238;stroke-miterlimit:10;" points="177.683,201.476 162.452,191.413 171.081,199.92 
						167.529,207.419 					"/>
					<path style="fill:none;stroke:#263238;stroke-miterlimit:10;" d="M199.742,215.773c9.878,3.678,29.003,24.759,40.678,26.436"/>
					<path style="fill:none;stroke:#263238;stroke-miterlimit:10;" d="M192.942,213.171c0,0,0.83,0.331,2.292,0.895"/>
					<path style="fill:none;stroke:#263238;stroke-miterlimit:10;" d="M250.861,247.582c1.233,0.208,2.476,0.407,3.722,0.594"/>
					<path style="fill:none;stroke:#263238;stroke-miterlimit:10;" d="M224.104,241.698c0,0,10.174,2.817,22.406,5.109"/>
				</g>
			</g>
			<path style="fill:#92E3A9;stroke:#263238;stroke-miterlimit:10;" d="M217.206,145.857c0,0-24.999,4.107-25.067,5.363
				c-0.068,1.256,1.521,14.57,2.755,15.057c1.233,0.487,25.209-11.865,25.209-11.865L217.206,145.857z"/>
			<g>
				<path style="fill:#FFFFFF;stroke:#263238;stroke-miterlimit:10;" d="M217.732,147.775l0.01,38.635
					c0,0-20.007-10.531-31.115-18.691c-11.107-8.16-15.837-13.875-16.629-14.758c-0.792-0.883-3.111-20.116-3.253-21.383
					c-0.141-1.267-2.172-6.417-3.966-8.193c-1.794-1.777-8.25-2.756-9.563-1.777c-1.313,0.979-0.905,1.211,1.364,1.964
					c2.269,0.753,2.897,0.787,4.108,1.692c1.211,0.905,3.146,3.95,3.146,3.95s-4.889-2.784-7.401-2.92s-7.803,0.628-6.835,2.15
					c0.967,1.522,5.409,0.923,6.665,0.99c1.256,0.068,3.876,2.1,4.877,2.993c1.001,0.894,1.177,1.534,1.177,1.534
					s-5.551-2.19-7.644-2.303c-2.094-0.113-5.743,1.369-5.568,2.008c0.175,0.639,0.583,0.871,2.676,0.985
					c2.094,0.113,4.187,0.227,4.187,0.227l5.098,2.795c0,0-4.815-0.26-5.873-0.108c-1.058,0.153-4.453,0.809-4.091,1.878
					c0.362,1.069,5.036,0.062,5.036,0.062l5.562,1.981c0,0-0.651,8.154,1.284,11.198c1.935,3.044,4.764,5.087,4.764,5.087
					s27.283,31.292,31.408,36.554c4.125,5.263,12.799,11.821,17.852,15.454c3.78,2.718,11.277,5.02,14.033,4.539
					c2.756-0.481,5.936-4.928,6.344-12.465c0.408-7.537,3.482-37.187,3.125-42.245c-0.356-5.059,0.634-11.724-6.467-16.308
					C224.941,138.716,219.758,141.375,217.732,147.775z"/>
				<g>
					<path style="fill:#92E3A9;stroke:#263238;stroke-miterlimit:10;" d="M238.509,159.607c-0.356-5.059,0.634-11.724-6.467-16.308
						c-7.101-4.584-12.284-1.924-14.31,4.475l0.01,38.635c0,0-3.777-1.988-8.958-4.905l-9.781,14.952
						c4.499,4.804,11.616,10.166,16.005,13.321c3.78,2.718,11.277,5.02,14.033,4.539c2.756-0.481,5.936-4.928,6.344-12.465
						C235.791,194.316,238.865,164.666,238.509,159.607z"/>
					<path style="fill:#FFFFFF;stroke:#263238;stroke-miterlimit:10;" d="M217.741,186.41c0,0,11.509,4.612,14.083,7.481"/>
				</g>
			</g>
			<g>
				<path style="fill:#92E3A9;stroke:#263238;stroke-miterlimit:10;" d="M141.29,207.769l45.182,39.498
					c0,0,13.751-13.527,15.998-13.405c2.247,0.122,9.182,1.498,10.64,2.328c1.457,0.83,3.927,1.464,3.623,2.449
					c-0.304,0.985-1.788,0.654-3.744-0.203c-1.957-0.857-9.169-1.748-9.169-1.748s5.357,2.793,7.273,4.399
					c1.916,1.606,4.736,5.013,4.196,5.735c-0.54,0.722-2.415-1.633-4.345-2.989c-1.93-1.356-7.59-3.165-7.59-3.165
					s5.262,4.541,6.18,6.093c0.917,1.552,2.584,3.144,1.073,3.313c-1.511,0.169-5.026-4.278-6.247-4.845
					c-1.221-0.567-3.4-1.936-3.4-1.936s3.198,5.681,3.144,6.68c-0.054,0.999-1.053,0.945-2.22-0.621
					c-1.167-1.565-2.766-4.406-2.766-4.406s-2.254,4.635-6.16,7.428c-3.907,2.793-7.665,2.84-9.594,1.484
					c-1.93-1.356-55.748-29.304-57.901-31.173c-2.152-1.869,0.744-8.111,8.495-13.343"/>
				<path style="fill:#FFFFFF;stroke:#263238;stroke-miterlimit:10;" d="M213.109,236.191c-1.457-0.83-8.393-2.207-10.64-2.328
					c-2.247-0.121-15.998,13.405-15.998,13.405l-31.497-27.302l-8.441,14.276c12.494,6.336,35.755,18.864,36.828,19.618
					c1.93,1.356,5.688,1.309,9.594-1.484c3.907-2.793,6.16-7.428,6.16-7.428s1.599,2.84,2.766,4.406
					c1.167,1.565,2.166,1.619,2.22,0.621c0.054-0.999-3.144-6.68-3.144-6.68s2.179,1.37,3.4,1.936
					c1.221,0.567,4.736,5.013,6.247,4.845c1.511-0.169-0.155-1.761-1.073-3.313c-0.917-1.552-6.18-6.093-6.18-6.093
					s5.661,1.808,7.59,3.165c1.93,1.356,3.805,3.711,4.345,2.989c0.54-0.722-2.28-4.129-4.196-5.735
					c-1.916-1.606-7.273-4.399-7.273-4.399s7.212,0.891,9.169,1.748c1.956,0.857,3.441,1.188,3.744,0.203
					C217.036,237.655,214.566,237.02,213.109,236.191z"/>
			</g>
		</g>
	</g>
</g>
</svg>
